<?xml version="1.0" encoding="utf-8"?>
<!-- Generator: Adobe Illustrator 19.2.0, SVG Export Plug-In . SVG Version: 6.00 Build 0)  -->
<svg version="1.1" id="Layer_1" xmlns="http://www.w3.org/2000/svg" xmlns:xlink="http://www.w3.org/1999/xlink" x="0px" y="0px"
	 viewBox="0 0 363.9 512.8" style="enable-background:new 0 0 363.9 512.8;" xml:space="preserve">
<style type="text/css">
	.st0{fill:#7E3273;}
	.st1{fill:#A73A95;}
	.st2{fill:#FFFFFF;}
	.st3{fill:#EBEAEA;}
	.st4{fill:#010101;}
</style>
<polygon class="st0" points="182.5,101.3 0.7,101.3 34.8,470.9 182.5,512.8 330.1,470.9 363.9,105.1 363.9,101.3 "/>
<polygon class="st1" points="182.5,131.4 182.5,481.5 302.1,447.5 331.2,131.4 "/>
<polygon class="st2" points="277.7,176.7 93.6,176.7 80.8,315.1 81.1,314.2 237.5,314.2 232.4,372.8 182.5,387.2 131.9,372.6 
	128.9,337.2 82.8,337.2 89.4,407.9 182.5,434.3 275.5,407.9 288.3,269 122.5,269 124.6,222.7 239.7,222.7 241.4,249.2 287.8,249.2 
	"/>
<path class="st3" d="M182.5,176.7H93.6L80.8,315.1l0.3-0.9h101.4V269h-53.6l2.1-46.3h51.5V176.7z M128.9,337.2H82.9l6.6,70.8
	l93.1,26.3v-47.1L132,372.5L128.9,337.2z"/>
<polygon class="st4" points="109.1,46.5 76.8,46.5 76.8,69.8 109.1,69.8 126.4,69.8 132.4,69.8 132.4,0.8 109.1,0.8 "/>
<polygon class="st4" points="292.3,23.7 276.1,23.7 276.1,7.5 252.9,7.5 252.9,23.7 236.8,23.7 236.8,46.9 252.9,46.9 252.9,63.1 
	276.1,63.1 276.1,46.9 292.3,46.9 "/>
<path class="st4" d="M212.2,1.2h-56.4v24.1c7.5,7.5,11.5,11.1,22.4,22.1h-22.4v22h56.4v-22l-22.5-22h22.5V1.2z"/>
</svg>
