<?xml version="1.0" encoding="utf-8"?>
<!-- Generator: Adobe Illustrator 19.2.0, SVG Export Plug-In . SVG Version: 6.00 Build 0)  -->
<svg version="1.1" id="Layer_1" xmlns="http://www.w3.org/2000/svg" xmlns:xlink="http://www.w3.org/1999/xlink" x="0px" y="0px"
	 viewBox="0 0 521.3 485.1" style="enable-background:new 0 0 521.3 485.1;" xml:space="preserve">
<style type="text/css">
	.st0{fill:#1572B6;}
	.st1{fill:#33A9DC;}
	.st2{fill:#FFFFFF;}
	.st3{fill:#EBEBEB;}
	.st4{fill:#E44D26;}
	.st5{fill:#F16529;}
	.st6{fill:#E5A229;}
	.st7{fill:#F1BE21;}
	.st8{fill:#EBEAEA;}
	.st9{fill:#5B9942;}
	.st10{fill:#7FBC42;}
	.st11{fill:#EBEDF0;}
</style>
<g>
	<g>
		<title>HTML5 Logo</title>
		<g id="Page_1_1_">
			<g id="Layer_1_2_">
				<path id="Shape_15_" d="M125.7,114.2h-13.3l13.9,15v7.2H97.7V128h13.9l-13.9-15v-7.2h28V114.2L125.7,114.2z M92.1,114.2H78.8
					l13.9,15v7.2H64.1V128H78l-13.9-15v-7.2h28V114.2L92.1,114.2z M58.8,114.5H44.4v13.1h14.4v8.7H34.2v-30.6h24.6V114.5L58.8,114.5
					z"/>
				<path id="Shape_14_" class="st0" d="M14.6,314.1L0,150.3h160.5l-14.6,163.7l-65.7,18.2L14.6,314.1z"/>
				<path id="Shape_13_" class="st1" d="M80.2,318.4l53.1-14.7l12.5-139.9H80.2V318.4z"/>
				<g id="Group_1_" transform="translate(55.000000, 142.000000)">
					<path id="Shape_12_" class="st2" d="M25.2,81.1h26.6l1.8-20.6H25.2V40.4h0.1h50.3l-0.5,5.4l-4.9,55.4h-45V81.1z"/>
					<path id="Shape_11_" class="st3" d="M25.4,133.2L25.4,133.2l-22.5-6l-1.4-16H-9.4h-9.3l2.8,31.5l41.1,11.4l0.1,0L25.4,133.2
						L25.4,133.2z"/>
					<path id="Shape_10_" class="st2" d="M50.1,100.3l-2.4,26.9l-22.4,6v20.9l41.2-11.4l0.3-3.4l3.5-39H50.1z"/>
					<path id="Shape_9_" class="st3" d="M25.3,40.4v12.5v7.6v0h-48.5h0l-0.4-4.5l-0.9-10.2l-0.5-5.4C-25,40.4,25.3,40.4,25.3,40.4z"
						/>
					<path id="Shape_8_" class="st3" d="M25.2,81.1v12.5v7.6v0h-22h0l-0.4-4.5L1.8,86.4l-0.5-5.4L25.2,81.1L25.2,81.1z"/>
				</g>
			</g>
		</g>
	</g>
	<g>
		<title>HTML5 Logo</title>
		<polygon class="st4" points="374.9,314 360.2,149.5 521.3,149.5 506.7,314 440.7,332.3 		"/>
		<polygon class="st5" points="440.8,318.3 494.1,303.5 506.6,163 440.8,163 		"/>
		<polygon class="st3" points="440.8,224 414.1,224 412.2,203.3 440.8,203.3 440.8,183.2 440.7,183.2 390.2,183.2 390.7,188.6 
			395.6,244.2 440.8,244.2 		"/>
		<polygon class="st3" points="440.8,276.4 440.7,276.4 418.2,270.3 416.8,254.2 405.9,254.2 396.6,254.2 399.4,285.9 440.7,297.4 
			440.8,297.4 		"/>
		<path d="M375.2,104.8h10.3V115h9.4v-10.1h10.3v30.7h-10.3v-10.3h-9.4v10.3h-10.2L375.2,104.8L375.2,104.8z"/>
		<path d="M418.6,115h-9.1v-10.2h28.3V115h-9v20.5h-10.3L418.6,115L418.6,115z"/>
		<path d="M442.4,104.8h10.7l6.6,10.8l6.5-10.8h10.7v30.7h-10.2v-15.2l-7.1,10.9h-0.2l-7.1-10.9v15.2h-10L442.4,104.8L442.4,104.8z"
			/>
		<path d="M482,104.8h10.3v20.5h14.4v10.1H482L482,104.8L482,104.8z"/>
		<polygon class="st2" points="440.7,224 440.7,244.2 465.6,244.2 463.2,270.3 440.7,276.4 440.7,297.4 482.1,285.9 482.4,282.5 
			487.1,229.4 487.6,224 482.2,224 		"/>
		<polygon class="st2" points="440.7,183.2 440.7,195.7 440.7,203.3 440.7,203.3 489.4,203.3 489.4,203.3 489.5,203.3 489.9,198.8 
			490.8,188.6 491.3,183.2 		"/>
	</g>
	<g>
		<title>HTML5 Logo</title>
		<g>
			<polygon class="st6" points="339.7,44.4 259,44.4 259,44.4 178.3,44.4 193.4,208.4 259,227 259,227 259,227 259,227 259,227 
				324.5,208.4 			"/>
			<polygon class="st7" points="259,57.8 259,213.1 259,213.1 312.1,198.1 325,57.8 			"/>
			<polygon class="st2" points="301.2,77.9 219.5,77.9 213.9,139.3 214,138.9 283.4,138.9 281.1,164.9 259,171.3 236.5,164.8 
				235.2,149.1 214.8,149.1 217.7,180.5 259,192.2 300.3,180.5 306,118.8 232.3,118.8 233.3,98.3 284.4,98.3 285.1,110 305.7,110 
							"/>
			<g>
				<path class="st8" d="M259,77.9h-39.4l-5.7,61.4l0.1-0.4h45v-20.1h-23.8l0.9-20.6H259V77.9L259,77.9z M235.2,149.1h-20.4
					l2.9,31.4l41.3,11.7v-20.9l-22.5-6.5L235.2,149.1z"/>
			</g>
			<g>
				<polygon points="243.3,20.2 228.9,20.2 228.9,30.5 243.3,30.5 251,30.5 253.6,30.5 253.6,-0.1 243.3,-0.1 				"/>
				<path d="M289,0H264c0,0,0,5.4,0,10.7c3.3,3.3,5.1,4.9,10,9.8c-2.8,0-10,0-10,0v9.8H289v-9.8l-10-9.8h10V0L289,0z"/>
			</g>
		</g>
	</g>
	<g>
		<title>HTML5 Logo</title>
		<g>
			<polygon class="st9" points="325.7,466.7 259.9,485.1 194.1,466.7 179.5,302.3 340.4,302.3 			"/>
			<path d="M230.1,257.9v30.6h28.6v-30.6H230.1z M250.5,279.7h-12.2v-13h12.2V279.7z"/>
			<polygon points="322.3,266.5 322.3,257.9 297.6,257.9 297.6,268.9 297.6,277.5 297.6,288.5 322.3,288.5 322.3,279.6 307.3,279.6 
				307.3,277.5 322.3,277.5 322.3,268.9 307.3,268.9 307.3,266.5 			"/>
			<polygon class="st10" points="259.3,316.1 259.5,383.2 278.2,411.9 280.9,355.2 268.8,355.2 269.9,334 305.9,334 296.6,437.3 
				276.1,443.3 259.7,418.8 259.9,471.3 313.2,456.2 325.7,316.1 			"/>
			<polygon class="st2" points="296.6,437.3 305.9,334 269.9,334 268.8,355.2 280.9,355.2 278.2,411.9 259.5,383.2 259.7,418.8 
				276.1,443.3 			"/>
			<polygon class="st11" points="227.4,334 204.1,334 213.9,437.3 245.3,446 243.1,429.9 233.7,427.2 228.5,372.2 259.7,418.8 
				259.5,383.2 			"/>
			<path d="M263.7,257.9v30.6h28.6v-30.6H263.7z M284.2,279.7H272v-13h12.2V279.7L284.2,279.7z"/>
			<polygon points="224.9,288.5 224.9,257.9 216.1,257.9 216.1,272.6 205.2,257.9 196.3,257.9 196.3,288.5 205.2,288.5 205.2,274.1 
				216.1,288.5 			"/>
		</g>
	</g>
</g>
</svg>
