<?xml version="1.0" encoding="utf-8"?>
<!-- Generator: Adobe Illustrator 19.2.0, SVG Export Plug-In . SVG Version: 6.00 Build 0)  -->
<svg version="1.1" id="Layer_1" xmlns="http://www.w3.org/2000/svg" xmlns:xlink="http://www.w3.org/1999/xlink" x="0px" y="0px"
	 viewBox="0 0 361.2 512" style="enable-background:new 0 0 361.2 512;" xml:space="preserve">
<style type="text/css">
	.st0{fill:#5B9942;}
	.st1{fill:#7FBC42;}
	.st2{fill:#FFFFFF;}
	.st3{fill:#EBEDF0;}
</style>
<title>HTML5 Logo</title>
<g>
	<polygon class="st0" points="328.7,468.8 181.4,510 34.1,468.8 1.3,100.8 361.5,100.8 	"/>
	<path d="M114.6,1.4v68.5h64.1V1.4H114.6z M160.3,50.3H133V21.1h27.3V50.3z"/>
	<polygon points="321,20.6 321,1.4 265.7,1.4 265.7,26.1 265.7,45.3 265.7,69.9 321,69.9 321,50 287.5,50 287.5,45.3 321,45.3 
		321,26.1 287.5,26.1 287.5,20.6 	"/>
	<polygon class="st1" points="180,131.8 180.6,282 222.4,346.1 228.3,219.2 201.4,219.2 203.8,171.9 284.3,171.9 263.6,403.1 
		217.6,416.4 180.9,361.7 181.4,479.1 300.8,445.3 328.7,131.8 	"/>
	<polygon class="st2" points="263.6,403.1 284.3,171.9 203.8,171.9 201.4,219.2 228.3,219.2 222.4,346.1 180.6,282 180.9,361.7 
		217.6,416.4 	"/>
	<polygon class="st3" points="108.6,171.8 56.5,171.9 78.3,403.1 148.7,422.5 143.8,386.5 122.7,380.4 111.1,257.4 180.9,361.7 
		180.6,282 	"/>
	<path d="M190,1.4v68.5H254V1.4H190z M235.7,50.3h-27.3V21.1h27.3L235.7,50.3L235.7,50.3z"/>
	<polygon points="103,69.9 103,1.4 83.3,1.4 83.3,34.3 58.9,1.4 38.9,1.4 38.9,69.9 58.9,69.9 58.9,37.7 83.3,69.9 	"/>
</g>
</svg>
