<?xml version="1.0" encoding="utf-8"?>
<!-- Generator: Adobe Illustrator 19.2.0, SVG Export Plug-In . SVG Version: 6.00 Build 0)  -->
<svg version="1.1" id="Layer_1" xmlns="http://www.w3.org/2000/svg" xmlns:xlink="http://www.w3.org/1999/xlink" x="0px" y="0px"
	 viewBox="0 0 361.2 512" style="enable-background:new 0 0 361.2 512;" xml:space="preserve">
<style type="text/css">
	.st0{fill:#1572B6;}
	.st1{fill:#33A9DC;}
	.st2{fill:#FFFFFF;}
	.st3{fill:#EBEBEB;}
</style>
<title>HTML5 Logo</title>
<g id="Page_1">
	<g id="Layer_1_1_">
		<path id="Shape" d="M283,19h-30l31.2,33.8v16.1H220V50.1h31.2L220,16.3V0.1h63V19L283,19z M207.3,19h-30l31.2,33.8v16.1h-64.2
			V50.1h31.2l-31.2-33.8V0.1h63V19L207.3,19z M132.3,19.8H99.9v29.5h32.4v19.6H77V0.1h55.3V19.8L132.3,19.8z"/>
		<path id="Shape_1_" class="st0" d="M32.9,469.1L0,100.4h361.2L328.3,469l-147.9,41L32.9,469.1z"/>
		<path id="Shape_2_" class="st1" d="M180.6,478.7l119.5-33.1l28.1-315H180.6V478.7z"/>
		<g id="Group" transform="translate(55.000000, 142.000000)">
			<path id="Shape_3_" class="st2" d="M125.6,122.1h59.8l4.1-46.3h-64V30.6h0.2h113.2l-1.1,12.1l-11,124.6H125.6V122.1z"/>
			<path id="Shape_4_" class="st3" d="M125.9,239.5l-0.2,0.1L75.3,226l-3.2-36.1H47.6H26.7l6.3,71l92.6,25.7l0.2-0.1v-47H125.9z"/>
			<path id="Shape_5_" class="st2" d="M181.6,165.4l-5.4,60.6l-50.4,13.6v47l92.7-25.7l0.7-7.6l7.9-87.9H181.6z"/>
			<path id="Shape_6_" class="st3" d="M125.8,30.6v28.1v17v0.1H16.7h-0.1l-0.9-10.2l-2.1-22.9l-1.1-12.1
				C12.5,30.6,125.8,30.6,125.8,30.6z"/>
			<path id="Shape_7_" class="st3" d="M125.6,122.1v28.1v17v0.1H76h-0.1L75,157.1l-2.1-22.9l-1.1-12.1L125.6,122.1L125.6,122.1z"/>
		</g>
	</g>
</g>
</svg>
