<?xml version="1.0" encoding="utf-8"?>
<!-- Generator: Adobe Illustrator 19.2.0, SVG Export Plug-In . SVG Version: 6.00 Build 0)  -->
<svg version="1.1" id="Layer_1" xmlns="http://www.w3.org/2000/svg" xmlns:xlink="http://www.w3.org/1999/xlink" x="0px" y="0px"
	 viewBox="0 0 512 512" style="enable-background:new 0 0 512 512;" xml:space="preserve">
<style type="text/css">
	.st0{fill:#1572B6;}
	.st1{fill:#33A9DC;}
	.st2{fill:#FFFFFF;}
	.st3{fill:#EBEBEB;}
</style>
<title>HTML5 Logo</title>
<g id="Page_1">
	<g id="Layer_1_1_">
		<path id="Shape" d="M358.2,19h-30l31.2,33.8v16.1h-64.2V50.1h31.2l-31.2-33.8V0.1h63V19L358.2,19z M282.5,19h-30l31.2,33.8v16.1
			h-64.2V50.1h31.2l-31.2-33.8V0.1h63V19L282.5,19z M207.5,19.8h-32.4v29.5h32.4v19.6h-55.3V0.1h55.3V19.8L207.5,19.8z"/>
		<path id="Shape_1_" class="st0" d="M108.1,469.1L75.2,100.4h361.2L403.5,469l-147.9,41L108.1,469.1z"/>
		<path id="Shape_2_" class="st1" d="M255.8,478.7l119.5-33.1l28.1-315H255.8V478.7z"/>
		<g id="Group" transform="translate(55.000000, 142.000000)">
			<path id="Shape_3_" class="st2" d="M200.8,122.1h59.8l4.1-46.3h-64V30.6h0.2h113.2l-1.1,12.1L302,167.3H200.8V122.1z"/>
			<path id="Shape_4_" class="st3" d="M201.1,239.5l-0.2,0.1L150.5,226l-3.2-36.1h-24.5h-20.9l6.3,71l92.6,25.7l0.2-0.1V239.5z"/>
			<path id="Shape_5_" class="st2" d="M256.8,165.4l-5.4,60.6l-50.4,13.6v47l92.7-25.7l0.7-7.6l7.9-87.9H256.8z"/>
			<path id="Shape_6_" class="st3" d="M201,30.6v28.1v17v0.1H91.9h-0.1l-0.9-10.2l-2.1-22.9l-1.1-12.1H201z"/>
			<path id="Shape_7_" class="st3" d="M200.8,122.1v28.1v17v0.1h-49.6h-0.1l-0.9-10.2l-2.1-22.9l-1.1-12.1H200.8z"/>
		</g>
	</g>
</g>
</svg>
