<svg id="Layer_1" data-name="Layer 1" xmlns="http://www.w3.org/2000/svg" viewBox="0 0 522.08 485.08"><title>logo-grid-white-font</title><g id="Page_1" data-name="Page 1"><g id="Layer_1-2" data-name="Layer 1"><path id="Shape" d="M306.16,8.4H292.84l13.86,15v7.15H278.18V22.21H292l-13.86-15V0h28V8.4h0Zm-33.63,0H259.21l13.86,15v7.15H244.55V22.21h13.86l-13.86-15V0h28V8.4h0Zm-33.32.36H224.83v13.1h14.39v8.71H214.65V0h24.57V8.75h0Z" transform="translate(0.58)" style="fill:#fff"/><path id="Shape-2" data-name="Shape" d="M195.06,208.35L180.45,44.56H340.9L326.29,208.3l-65.7,18.21Z" transform="translate(0.58)" style="fill:#1572b6"/><path id="Shape-3" data-name="Shape" d="M260.68,212.61l53.09-14.7L326.24,58H260.68V212.61Z" transform="translate(0.58)" style="fill:#33a9dc"/><g id="Group"><path id="Shape-4" data-name="Shape" d="M260.67,117.28h26.57l1.82-20.57H260.63V76.63H311L310.52,82l-4.89,55.35h-45V117.28Z" transform="translate(0.58)" style="fill:#fff"/><path id="Shape-5" data-name="Shape" d="M260.81,169.43l-0.09,0-22.39-6-1.42-16H216.74l2.8,31.54,41.14,11.42,0.09,0V169.43h0Z" transform="translate(0.58)" style="fill:#ebebeb"/><path id="Shape-6" data-name="Shape" d="M285.55,136.51l-2.4,26.92-22.39,6v20.88l41.18-11.42,0.31-3.38,3.51-39H285.55Z" transform="translate(0.58)" style="fill:#fff"/><path id="Shape-7" data-name="Shape" d="M260.76,76.63V96.71H212.25l-0.4-4.53L210.92,82l-0.49-5.38h50.33Z" transform="translate(0.58)" style="fill:#ebebeb"/><path id="Shape-8" data-name="Shape" d="M260.67,117.28v20.08H238.6l-0.4-4.53-0.93-10.17-0.49-5.38h23.9Z" transform="translate(0.58)" style="fill:#ebebeb"/></g></g></g><polygon points="14.66 338.01 0 173.51 161.13 173.51 146.47 337.96 80.45 356.26 14.66 338.01" style="fill:#e44d26"/><polygon points="80.58 342.27 133.89 327.48 146.42 186.97 80.58 186.97 80.58 342.27" style="fill:#f16529"/><polygon points="80.58 247.96 53.89 247.96 52.02 227.3 80.58 227.3 80.58 207.13 80.5 207.13 29.99 207.13 30.48 212.56 35.41 268.13 80.58 268.13 80.58 247.96" style="fill:#ebebeb"/><polygon points="80.58 300.38 80.5 300.38 58.02 294.29 56.6 278.21 45.67 278.21 36.34 278.21 39.14 309.89 80.5 321.39 80.58 321.35 80.58 300.38" style="fill:#ebebeb"/><path d="M14.4,128.82H24.66v10.13H34V128.82H44.29v30.65H34V149.21H24.66v10.26H14.44l0-30.65h0Z" transform="translate(0.58)" style="fill:#fff"/><path d="M57.8,139H48.73V128.82H77V139H68v20.48H57.75l0-20.48h0Z" transform="translate(0.58)" style="fill:#fff"/><path d="M81.56,128.82H92.27l6.57,10.79,6.53-10.79h10.71v30.65H105.86V144.28L98.8,155.16H98.62l-7.06-10.88v15.19h-10V128.82h0Z" transform="translate(0.58)" style="fill:#fff"/><path d="M121.19,128.82h10.26v20.52h14.44v10.13H121.23V128.82h0Z" transform="translate(0.58)" style="fill:#fff"/><polygon points="80.5 247.96 80.5 268.13 105.33 268.13 103.02 294.29 80.5 300.38 80.5 321.35 121.85 309.89 122.17 306.51 126.92 253.38 127.41 247.96 121.94 247.96 80.5 247.96" style="fill:#fff"/><polygon points="80.5 207.13 80.5 219.66 80.5 227.26 80.5 227.3 129.18 227.3 129.18 227.3 129.23 227.3 129.63 222.77 130.56 212.56 131.05 207.13 80.5 207.13" style="fill:#fff"/><polygon points="522.08 173.46 441.41 173.46 441.41 173.46 360.69 173.46 375.84 337.52 441.41 356.13 441.41 356.13 441.41 356.13 441.41 356.13 441.41 356.13 506.93 337.52 522.08 173.46" style="fill:#e5a229"/><polygon points="441.41 186.83 441.41 342.23 441.41 342.23 494.49 327.17 507.42 186.83 441.41 186.83" style="fill:#f1be21"/><polygon points="483.65 206.96 401.96 206.96 396.27 268.39 396.41 268 465.8 268 463.53 293.98 441.41 300.38 418.93 293.89 417.6 278.17 397.16 278.17 400.09 309.58 441.41 321.3 482.68 309.58 488.36 247.92 414.75 247.92 415.69 227.35 466.77 227.35 467.53 239.12 488.14 239.12 483.65 206.96" style="fill:#fff"/><path d="M440.83,207H401.38L395.7,268.4l0.13-.4h45V247.92H417L418,227.35h22.88V207h0ZM417,278.17H396.63l2.93,31.41,41.31,11.68V300.34l-22.48-6.49Z" transform="translate(0.58)" style="fill:#ebeaea"/><polygon points="425.68 149.25 411.33 149.25 411.33 159.56 425.68 159.56 433.37 159.56 435.99 159.56 435.99 128.95 425.68 128.95 425.68 149.25" style="fill:#fff"/><path d="M470.86,129.08H445.81v10.71c3.33,3.33,5.11,4.93,10,9.82h-10v9.77h25.05v-9.77l-10-9.77h10V129.08h0Z" transform="translate(0.58)" style="fill:#fff"/><polygon points="327.05 466.68 261.25 485.08 195.45 466.68 180.8 302.29 341.7 302.29 327.05 466.68" style="fill:#5b9942"/><path d="M230.83,257.88v30.6h28.63v-30.6H230.83Zm20.41,21.84h-12.2v-13h12.2v13Z" transform="translate(0.58)" style="fill:#fff"/><polygon points="323.61 266.46 323.61 257.88 298.91 257.88 298.91 268.92 298.91 277.49 298.91 288.48 323.61 288.48 323.61 279.59 308.65 279.59 308.65 277.49 323.61 277.49 323.61 268.92 308.65 268.92 308.65 266.46 323.61 266.46" style="fill:#fff"/><polygon points="260.63 316.13 260.89 383.23 279.57 411.87 282.2 355.18 270.19 355.18 271.26 334.05 307.22 334.05 297.97 437.33 277.42 443.27 261.03 418.83 261.25 471.28 314.59 456.18 327.05 316.13 260.63 316.13" style="fill:#7fbc42"/><polygon points="297.97 437.33 307.22 334.05 271.26 334.05 270.19 355.18 282.2 355.18 279.57 411.87 260.89 383.23 261.03 418.83 277.42 443.27 297.97 437.33" style="fill:#fff"/><polygon points="228.73 334 205.46 334.05 215.19 437.33 246.64 445.99 244.45 429.91 235.03 427.19 229.85 372.24 261.03 418.83 260.89 383.23 228.73 334" style="fill:#ebedf0"/><path d="M264.52,257.88v30.6h28.59v-30.6H264.52Zm20.41,21.84h-12.2v-13h12.2v13h0Z" transform="translate(0.58)" style="fill:#fff"/><polygon points="226.23 288.48 226.23 257.88 217.43 257.88 217.43 272.58 206.53 257.88 197.59 257.88 197.59 288.48 206.53 288.48 206.53 274.1 217.43 288.48 226.23 288.48" style="fill:#fff"/></svg>