<?xml version="1.0" encoding="utf-8"?>
<!-- Generator: Adobe Illustrator 15.1.0, SVG Export Plug-In . SVG Version: 6.00 Build 0)  -->
<!DOCTYPE svg PUBLIC "-//W3C//DTD SVG 1.1//EN" "http://www.w3.org/Graphics/SVG/1.1/DTD/svg11.dtd">
<svg version="1.1" id="Layer_1" xmlns="http://www.w3.org/2000/svg" xmlns:xlink="http://www.w3.org/1999/xlink" x="0px" y="0px"
	 width="792px" height="612px" viewBox="0 0 792 612" enable-background="new 0 0 792 612" xml:space="preserve">
<polygon fill="#5B9942" points="574.27,562.581 396.968,612.197 219.667,562.581 180.267,119.765 613.67,119.765 "/>
<polygon points="305.294,82.568 305.294,0.136 281.559,0.136 281.559,39.663 252.188,0.136 228.195,0.136 228.195,82.568 
	252.188,82.568 252.188,43.824 281.559,82.568 "/>
<path d="M409.979,0.12v82.449h77.099V0.12H409.979z M464.962,58.917h-32.864V23.772h32.864V58.917z"/>
<path d="M319.286,0.12v82.449h77.098V0.12H319.286z M374.267,58.917h-32.863V23.772h32.863V58.917z"/>
<polygon points="567.711,23.224 567.711,0.12 501.07,0.12 501.07,29.791 501.07,52.896 501.07,82.568 567.711,82.568 
	567.711,58.611 527.337,58.611 527.337,52.896 567.711,52.896 567.711,29.791 527.337,29.791 527.337,23.224 "/>
<polygon fill="#7FBC42" points="395.268,156.998 396.005,337.814 446.341,414.937 453.443,262.199 421.047,262.199 423.965,205.28 
	520.765,205.28 495.957,483.514 440.505,499.565 396.393,433.713 396.968,574.965 540.707,534.312 574.27,156.998 "/>
<polygon fill="#FFFFFF" points="495.957,483.514 520.765,205.28 423.965,205.28 421.047,262.199 453.443,262.199 446.341,414.937 
	396.005,337.814 396.393,433.713 440.505,499.565 "/>
<title>HTML5 Logo</title>
<polygon fill="#EBEDF0" points="309.413,205.152 246.664,205.28 272.931,483.514 357.568,506.861 351.731,463.561 326.356,456.263 
	312.332,308.216 396.393,433.713 396.005,337.814 "/>
</svg>
