<svg id="Layer_1" data-name="Layer 1" xmlns="http://www.w3.org/2000/svg" viewBox="0 0 317.11 363.82"><title>bootcamp-logo</title><polygon points="274.14 187.29 206.14 193.99 144.53 164.44 158.65 0 317.11 27.94 274.14 187.29" style="fill:#5b9942"/><polygon points="234.86 27.5 223.47 93.62 236.89 125.06 249.33 69.7 237.5 67.61 242.22 46.99 277.63 53.23 250.59 153.34 229.33 155.62 217.42 128.71 208.54 180.39 263.69 174.79 300.28 39.03 234.86 27.5" style="fill:#7fbc42"/><polygon points="250.59 153.34 277.63 53.23 242.22 46.99 237.5 67.61 249.33 69.7 236.89 125.06 223.47 93.62 217.42 128.71 229.33 155.62 250.59 153.34" style="fill:#fff"/><polygon points="200.35 39.56 177.42 35.56 169.08 138.96 198.54 152.96 199.18 136.74 190.37 132.42 194.81 77.41 217.42 128.71 223.47 93.62 200.35 39.56" style="fill:#ebedf0"/><polygon points="79.49 14.04 0 28.05 43.41 186.99 111.21 193.93 172.51 164.22 159.08 1.72 158.78 0.06 79.49 14.04" style="fill:#7e3273"/><polygon points="81.81 27.21 108.8 180.24 158.46 156.19 146.82 15.74 81.81 27.21" style="fill:#a73a95"/><polygon points="126.91 39.69 46.46 53.87 51.53 115.37 51.59 114.95 119.92 102.9 122.21 128.89 101.53 139.03 78.27 136.54 74.22 121.29 54.1 124.84 62.44 155.26 105.16 159.63 143.77 140.92 138.66 79.21 66.17 91.99 63.52 71.57 113.83 62.7 116.62 74.16 136.92 70.58 126.91 39.69" style="fill:#fff"/><path d="M85.31,47L46.46,53.87l5.07,61.49,0.06-.42,44.32-7.81L92.42,87.36,69,91.49,66.32,71.08l22.53-4ZM74.22,121.29l-20.08,3.54,8.34,30.42,42.71,4.33L101.57,139,78.3,136.49Z" style="fill:#ebeaea"/><polygon points="314.49 125.38 236.56 104.5 236.56 104.5 158.6 83.61 130.77 245.99 189.28 280.94 189.28 280.94 189.28 280.94 189.28 280.94 189.28 280.94 257.39 279.92 314.49 125.38" style="fill:#e5a229"/><polygon points="233.1 117.41 192.88 267.51 192.88 267.51 248.06 266.71 296.87 134.5 233.1 117.41" style="fill:#f1be21"/><polygon points="268.7 147.79 189.79 126.64 168.4 184.51 168.63 184.16 235.65 202.12 226.74 226.64 203.72 227.09 183.68 215.01 186.46 199.47 166.72 194.18 161.43 225.28 198.3 247.3 241.2 246.66 262.65 188.57 191.55 169.52 197.77 149.89 247.12 163.11 244.8 174.68 264.71 180.01 268.7 147.79" style="fill:#fff"/><path d="M227.89,136.85l-38.1-10.21L168.4,184.51l0.23-.35,43.47,11.65,5.2-19.4-23-6.16,6.22-19.63,22.1,5.92,5.28-19.7h0Zm-41.43,62.62-19.7-5.28-5.3,31.1,36.88,22,5.42-20.21-20-12.08Z" style="fill:#ebeaea"/><g id="Page_1" data-name="Page 1"><g id="Layer_1-2" data-name="Layer 1"><path id="Shape" d="M60.2,279.56L3.69,125.14l155-41.53,28.26,161.95-58.75,34.6Z" style="fill:#1572b6"/><path id="Shape-2" data-name="Shape" d="M124.68,266.7l47.47-27.94L148,100.36l-63.34,17Z" style="fill:#33a9dc"/><g id="Group"><path id="Shape-3" data-name="Shape" d="M100,174.61l25.66-6.88L122.1,147.4l-27.46,7.36-5.2-19.4,0.09,0,48.57-13,0.92,5.32,9.61,54.73L105.2,194Z" style="fill:#fff"/><path id="Shape-4" data-name="Shape" d="M113.63,225l-0.07.07-23.19,0-5.52-15.12-10.51,2.82-9,2.4,10.87,29.74,42.69,0.38,0.07-.07L113.59,225h0Z" style="fill:#ebebeb"/><path id="Shape-5" data-name="Shape" d="M129,186.76l4.65,26.62L113.6,225l5.4,20.17,36.82-21.69-0.57-3.34-6.72-38.63Z" style="fill:#fff"/><path id="Shape-6" data-name="Shape" d="M89.57,135.33l3.23,12.06,2,7.29v0L48,167.27h0L46.35,163l-3.53-9.58L41,148.36Z" style="fill:#ebebeb"/><path id="Shape-7" data-name="Shape" d="M100,174.61l3.23,12.06,2,7.29v0l-21.28,5.7h0l-1.56-4.27-3.53-9.58-1.86-5.07L100,174.61h0Z" style="fill:#ebebeb"/></g></g></g><polygon points="92.7 345.56 78.04 181.06 239.16 181.06 224.5 345.51 158.49 363.82 92.7 345.56" style="fill:#e44d26"/><polygon points="158.62 349.82 211.93 335.03 224.46 194.52 158.62 194.52 158.62 349.82" style="fill:#f16529"/><polygon points="158.62 255.51 131.93 255.51 130.06 234.86 158.62 234.86 158.62 214.69 158.53 214.69 108.03 214.69 108.51 220.11 113.44 275.68 158.62 275.68 158.62 255.51" style="fill:#ebebeb"/><polygon points="158.62 307.93 158.53 307.93 136.06 301.85 134.63 285.76 123.71 285.76 114.38 285.76 117.18 317.44 158.53 328.94 158.62 328.9 158.62 307.93" style="fill:#ebebeb"/><polygon points="158.53 255.51 158.53 275.68 183.37 275.68 181.06 301.85 158.53 307.93 158.53 328.9 199.89 317.44 200.2 314.06 204.96 260.93 205.45 255.51 199.98 255.51 158.53 255.51" style="fill:#fff"/><polygon points="158.53 214.69 158.53 227.22 158.53 234.81 158.53 234.86 207.22 234.86 207.22 234.86 207.27 234.86 207.67 230.32 208.6 220.11 209.09 214.69 158.53 214.69" style="fill:#fff"/></svg>