<svg id="Layer_1" data-name="Layer 1" xmlns="http://www.w3.org/2000/svg" xmlns:xlink="http://www.w3.org/1999/xlink" viewBox="0 0 363.3 512.6"><defs><clipPath id="clip-path" transform="translate(0 0.6)"><rect x="101.23" y="119.54" width="160.68" height="355.55" style="fill:none"/></clipPath></defs><title>capstone-logo</title><polygon points="363.3 100 181.7 100 181.7 100 0 100 34.1 469.3 181.7 511.2 181.7 511.2 181.7 511.2 181.7 511.2 181.7 511.2 329.2 469.3 363.3 100" style="fill:#e5a229"/><polygon points="181.7 130.1 181.7 479.9 181.7 479.9 301.2 446 330.3 130.1 181.7 130.1" style="fill:#f1be21"/><polygon points="276.8 175.4 92.9 175.4 80.1 313.7 80.4 312.8 236.6 312.8 231.5 371.3 181.7 385.7 131.1 371.1 128.1 335.7 82.1 335.7 88.7 406.4 181.7 432.8 274.6 406.4 287.4 267.6 121.7 267.6 123.8 221.3 238.8 221.3 240.5 247.8 286.9 247.8 276.8 175.4" style="fill:#fff"/><path d="M181.7,174.8H92.9L80.1,313.1l0.3-.9H181.7V267H128.1l2.1-46.3h51.5V174.8h0ZM128.1,335.1H82.2l6.6,70.7,93,26.3V385l-50.6-14.6Z" transform="translate(0 0.6)" style="fill:#ebeaea"/><polygon points="330.13 471.03 181.57 512.6 33.01 471.03 0 100 363.14 100 330.13 471.03"/><rect x="166.31" y="276.21" width="91.38" height="10.51" style="fill:#fff"/><rect x="124.18" y="215.17" width="133.7" height="7.37" style="fill:#fff"/><rect x="124.18" y="155.15" width="133.52" height="4.34" style="fill:#fff"/><rect x="115.75" y="307.77" width="87.63" height="10.51" style="fill:#21ab6f"/><rect x="115.75" y="371.7" width="128.64" height="7.36" style="fill:#21ab6f"/><rect x="115.75" y="431.13" width="138.11" height="4.34" style="fill:#21ab6f"/><g style="clip-path:url(#clip-path)"><path d="M181.49,305.26c122.46,93.58,46.06,169.84,46.06,169.84s95.26-84.53-31.45-178.58c-137.17-101.8-38.2-177-38.2-177s-125,72.15,23.59,185.71" transform="translate(0 0.6)" style="fill:#fff"/></g><polyline points="89.24 19.2 122.74 19.2 122.74 0 67.44 0 67.44 24.7 67.44 43.9 67.44 68.5 122.74 68.5 122.74 48.6 89.24 48.6"/><path d="M147.4-.6V67.9h18.4V49h27.3V67.9h18.4V-0.6H147.4Zm45.7,34.25H165.8V19.1h27.3V33.65Z" transform="translate(0 0.6)"/><path d="M295.86-.6h-64.1V67.9h18.4V49h45.7m-18.4-15.35h-27.3V19.1h27.3V33.65Z" transform="translate(0 0.6)"/></svg>