<?xml version="1.0" encoding="utf-8"?>
<!-- Generator: Adobe Illustrator 19.2.0, SVG Export Plug-In . SVG Version: 6.00 Build 0)  -->
<svg version="1.1" id="Layer_1" xmlns="http://www.w3.org/2000/svg" xmlns:xlink="http://www.w3.org/1999/xlink" x="0px" y="0px"
	 viewBox="0 0 363.3 512" style="enable-background:new 0 0 363.3 512;" xml:space="preserve">
<style type="text/css">
	.st0{fill:#E5A229;}
	.st1{fill:#F1BE21;}
	.st2{fill:#FFFFFF;}
	.st3{fill:#EBEAEA;}
</style>
<title>HTML5 Logo</title>
<g>
	<polygon class="st0" points="363.3,99.4 181.7,99.4 181.7,99.4 0,99.4 34.1,468.7 181.7,510.6 181.7,510.6 181.7,510.6 
		181.7,510.6 181.7,510.6 329.2,468.7 	"/>
	<polygon class="st1" points="181.7,129.5 181.7,479.3 181.7,479.3 301.2,445.4 330.3,129.5 	"/>
	<polygon class="st2" points="276.8,174.8 92.9,174.8 80.1,313.1 80.4,312.2 236.6,312.2 231.5,370.7 181.7,385.1 131.1,370.5 
		128.1,335.1 82.1,335.1 88.7,405.8 181.7,432.2 274.6,405.8 287.4,267 121.7,267 123.8,220.7 238.8,220.7 240.5,247.2 286.9,247.2 
			"/>
	<g>
		<path class="st3" d="M181.7,174.8H92.9L80.1,313.1l0.3-0.9h101.3V267h-53.6l2.1-46.3h51.5V174.8z M128.1,335.1H82.2l6.6,70.7
			l93,26.3V385l-50.6-14.6L128.1,335.1z"/>
	</g>
	<g>
		<polygon points="146.3,44.9 114,44.9 114,68.1 146.3,68.1 163.6,68.1 169.5,68.1 169.5,-0.8 146.3,-0.8 		"/>
		<path d="M249.3-0.5h-56.4c0,0,0,12.1,0,24.1c7.5,7.5,11.5,11.1,22.4,22.1c-6.4,0-22.4,0-22.4,0v22h56.4v-22l-22.5-22h22.5V-0.5z"
			/>
	</g>
</g>
</svg>
