<?xml version="1.0" encoding="utf-8"?>
<!-- Generator: Adobe Illustrator 19.2.0, SVG Export Plug-In . SVG Version: 6.00 Build 0)  -->
<svg version="1.1" id="Layer_1" xmlns="http://www.w3.org/2000/svg" xmlns:xlink="http://www.w3.org/1999/xlink" x="0px" y="0px"
	 viewBox="0 0 512 512" style="enable-background:new 0 0 512 512;" xml:space="preserve">
<style type="text/css">
	.st0{fill:#E5A229;}
	.st1{fill:#F1BE21;}
	.st2{fill:#FFFFFF;}
	.st3{fill:#EBEAEA;}
</style>
<title>HTML5 Logo</title>
<g>
	<polygon class="st0" points="437.5,99.4 255.9,99.4 255.9,99.4 74.2,99.4 108.3,468.7 255.9,510.6 255.9,510.6 255.9,510.6 
		255.9,510.6 255.9,510.6 403.4,468.7 	"/>
	<polygon class="st1" points="255.9,129.5 255.9,479.3 255.9,479.3 375.4,445.4 404.5,129.5 	"/>
	<polygon class="st2" points="351,174.8 167.1,174.8 154.3,313.1 154.6,312.2 310.8,312.2 305.7,370.7 255.9,385.1 205.3,370.5 
		202.3,335.1 156.3,335.1 162.9,405.8 255.9,432.2 348.8,405.8 361.6,267 195.9,267 198,220.7 313,220.7 314.7,247.2 361.1,247.2 	
		"/>
	<g>
		<path class="st3" d="M255.9,174.8h-88.8l-12.8,138.3l0.3-0.9h101.3V267h-53.6l2.1-46.3h51.5V174.8z M202.3,335.1h-45.9l6.6,70.7
			l93,26.3v-47.1l-50.6-14.6L202.3,335.1z"/>
	</g>
	<g>
		<polygon points="220.5,44.9 188.2,44.9 188.2,68.1 220.5,68.1 237.8,68.1 243.7,68.1 243.7,-0.8 220.5,-0.8 		"/>
		<path d="M323.5-0.5h-56.4c0,0,0,12.1,0,24.1c7.5,7.5,11.5,11.1,22.4,22.1c-6.4,0-22.4,0-22.4,0v22h56.4v-22L301,23.7h22.5V-0.5z"
			/>
	</g>
</g>
</svg>
